<svg xmlns="http://www.w3.org/2000/svg" version="1.1" xmlns:xlink="http://www.w3.org/1999/xlink" xmlns:svgjs="http://svgjs.dev/svgjs" width="100%" height="100%" viewBox="0 0 1000 600"><rect width="1000" height="600" x="0" y="0" fill="#0000"/><g><rect width="333.3333333333333" height="333.3333333333333" rx="13.333333333333334" ry="13.333333333333334" y="77.7777739630807" fill="#000000" transform="matrix(2.2499999313354513,0,0,2.2499999313354517,0,-249.99999084472722)" x="55.55555725097656"/><path d="M67.6533455563389 239.70941378909433Q67.85785897886225 226.03623068324853 78.81393518546946 218.06020720483846Q89.74079518885905 210.05496752321082 102.68357321426438 210.25948094573417Q115.6263512396697 210.46399436825746 124.04061776634404 214.78799244446512Q132.45488429301838 219.11199052067278 132.25037087049503 227.52625704734712L132.25037087049503 227.52625704734712Q132.01664124475408 233.19420047156527 128.2477510296812 235.70679394828053Q124.44964461139071 238.24860362821337 120.03799792553019 237.8103605799491L120.03799792553019 237.8103605799491Q120.24251134805354 230.44787736910902 115.50948642679921 225.83171726072518Q110.77646150554492 221.21555715234135 101.74865471130056 220.98182752660043Q92.69163171383859 220.77731410407708 86.70231005422666 225.10131218028474Q80.71298839461471 229.39609405327477 80.47925876887376 236.1450369965448Q80.27474534635041 242.8647637365972 86.49779663170332 246.98424839028152Q92.69163171383859 251.0745168407482 104.05673476549248 255.48616352660875Q115.42183781714635 259.89781021246927 119.51210626761305 261.913728234485Q123.60237471807976 263.9004300532831 128.45226445220453 267.26029342330924L128.45226445220453 267.26029342330924Q137.5092874496665 273.570993318315 137.18790921427268 286.42612273406746Q136.86653097887887 299.2520359466023 125.93967097548929 309.4484908695514Q114.98359476888206 319.6449457925006 96.69425155465242 319.4404323699772L96.69425155465242 319.4404323699772Q83.63460871637663 319.0314055249305 73.75953202882133 313.86013755541194Q63.88445534126603 308.718085789111 63.88445534126603 299.661062791649L63.88445534126603 299.661062791649Q64.08896876378937 294.84038926074186 67.12745389842176 291.9772013454151Q70.19515523627179 289.1432296333061 74.60680192213229 289.34774305582937L74.60680192213229 289.34774305582937Q76.2721255055366 297.9957392082447 83.10871705845949 303.25465578741614Q89.94530861138239 308.5135723665876 100.05411492467864 308.6012209762405Q110.1629212379749 308.718085789111 116.88264797802734 303.98506086785665Q123.60237471807976 299.2520359466023 123.8361043438207 291.451309687498Q124.04061776634404 283.67979963161133 119.10307942256638 279.6771797907975Q114.13632487557112 275.67455994998363 104.90400465880343 272.2270479703045Q95.64246823881814 268.7503197874079 91.96122663339811 267.26029342330924Q88.27998502797809 265.79948326242834 82.90420363593616 262.8486467374488Q77.55763844711183 259.89781021246927 74.60680192213229 256.97618989070725L74.60680192213229 256.97618989070725Q67.6533455563389 249.61370667986725 67.6533455563389 239.70941378909433L67.6533455563389 239.70941378909433ZM239.94129593063957 319.4404323699772L239.94129593063957 319.4404323699772Q226.0635994022704 319.4404323699772 225.0118160864361 304.07270947750953L225.0118160864361 304.07270947750953Q209.6440931939684 319.4404323699772 191.96829024730874 319.4404323699772Q174.32170350386673 319.4404323699772 162.63522221681905 306.49765434457186Q150.94874092977136 293.5548763191666 150.33520066220134 267.78618508122645Q149.69244419141373 242.01749384328625 163.04424906186574 226.153095496119Q176.42527013553533 210.25948094573417 200.3825567739831 210.25948094573417L200.3825567739831 210.25948094573417Q213.23768618973557 210.25948094573417 224.8073026639128 215.72291094742891L224.8073026639128 215.72291094742891L224.8073026639128 183.5558712048302L213.8512264573056 182.29957446647256Q208.79682330065742 181.8613314182083 208.79682330065742 173.2425514690106L208.79682330065742 173.2425514690106L239.29853945985192 169.4444450507201L239.29853945985192 307.8708158958L252.7672091431744 309.5653556824219Q252.35818229812773 319.4404323699772 239.94129593063957 319.4404323699772ZM224.8073026639128 293.78860594490754L224.8073026639128 231.9379037332076Q213.4421996122589 221.62458399738804 197.3440716393507 221.62458399738804Q181.24594366644249 221.62458399738804 173.56208222020865 233.92460555200572Q165.9074369771924 246.22462710662344 165.9074369771924 264.747699946594Q165.9074369771924 283.27077278656463 173.4744336105558 295.13255129291804Q181.04143024391917 307.02354600248907 196.61366655891024 307.02354600248907L196.61366655891024 307.02354600248907Q204.38517661479693 307.02354600248907 210.49136308727938 303.86819605498613Q216.5975495597618 300.7128461074833 224.8073026639128 293.78860594490754L224.8073026639128 293.78860594490754ZM374.56956035742894 316.2850824224744L374.56956035742894 316.2850824224744L335.44906424903684 316.2850824224744L335.44906424903684 314.59054263585244Q335.44906424903684 309.5653556824219 338.3999007740164 308.2798427408467L338.3999007740164 308.2798427408467Q339.8607109348974 307.4617890507533 341.9642775665659 307.22805942501236L341.9642775665659 307.22805942501236L351.2258139865512 306.81903257996566L351.2258139865512 252.33081357910586Q351.2258139865512 222.88088073574565 327.88206761567346 222.88088073574565L327.88206761567346 222.88088073574565Q319.23407146325815 222.88088073574565 312.3098313006824 226.24074410577188Q305.356374934889 229.6298236790157 296.533081563168 236.99230688985577L296.533081563168 236.99230688985577L296.533081563168 306.4100057349191L311.4625614073715 307.6663024732767Q312.3098313006824 316.2850824224744 305.7946179831533 316.2850824224744L305.7946179831533 316.2850824224744L266.23587882649684 316.2850824224744L266.23587882649684 314.59054263585244Q266.23587882649684 307.8708158958 272.95560556654925 307.22805942501236L272.95560556654925 307.22805942501236L282.01262856401127 306.81903257996566L282.01262856401127 223.93266405157996L271.08576856062166 222.6763673132223Q266.0313654039735 222.26734046817566 266.0313654039735 214.0575873640246L266.0313654039735 214.0575873640246L293.1732181931418 210.46399436825746L295.89032509238035 226.47447373151286L296.533081563168 226.47447373151286Q313.56612803904 210.25948094573417 331.6509578307464 210.25948094573417L331.6509578307464 210.25948094573417Q345.76238398485646 210.25948094573417 355.75432548528227 220.1637738365071Q365.74626698570796 230.03885052406238 365.74626698570796 250.66548999570156L365.74626698570796 250.66548999570156L365.74626698570796 306.4100057349191L380.471233407388 307.6663024732767Q381.2892870974814 316.2850824224744 374.56956035742894 316.2850824224744Z " fill="#ffffff" transform="matrix(2.2499999313354513,0,0,2.2499999313354517,0,-249.99999084472722)"/><path d="MNaN 244.4444461398655 " fill="#616161" transform="matrix(2.2499999313354513,0,0,2.2499999313354517,0,-249.99999084472722)"/></g></svg>