<svg xmlns="http://www.w3.org/2000/svg" version="1.1" xmlns:xlink="http://www.w3.org/1999/xlink" xmlns:svgjs="http://svgjs.dev/svgjs" width="100%" height="100%" viewBox="0 0 1000 600"><rect width="1000" height="600" x="0" y="0" fill="#0000"/><g><rect width="333.3333333333333" height="333.3333333333333" rx="13.333333333333334" ry="13.333333333333334" y="322.7932458500527" fill="#000000" transform="matrix(0.4158750836877534,0,0,0.4158750836877534,0,96.44581157455872)" x="300.5711669921875"/><path d="M312.6689596453809 484.7248927726699Q312.8734730679042 471.0517096668241 323.8295492745114 463.075686188414Q334.756409277901 455.07044650678637 347.6991873033063 455.2749599293097Q360.64196532871165 455.479473351833 369.056231855386 459.80347142804067Q377.4704983820603 464.1274695042483 377.265984959537 472.54173603092266L377.265984959537 472.54173603092266Q377.032255333796 478.2096794551408 373.2633651187232 480.7222729318561Q369.4652587004326 483.2640826117889 365.05361201457214 482.82583956352465L365.05361201457214 482.82583956352465Q365.2581254370955 475.46335635268457 360.52510051584113 470.84719624430073Q355.79207559458683 466.2310361359169 346.7642688003425 465.997306510176Q337.70724580288055 465.7927930876526 331.7179241432686 470.1167911638603Q325.7286024836567 474.4115730368503 325.4948728579157 481.16051598012035Q325.29035943539236 487.88024272017276 331.51341072074524 491.99972737385707Q337.70724580288055 496.08999582432375 349.0723488545344 500.5016425101843Q360.4374519061883 504.9132891960448 364.527720356655 506.9292072180605Q368.6179888071217 508.91590903685864 373.4678785412465 512.2757724068848L373.4678785412465 512.2757724068848Q382.52490153870843 518.5864723018906 382.2035233033146 531.441601717643Q381.8821450679208 544.2675149301779 370.95528506453127 554.463969853127Q359.99920885792403 564.6604247760761 341.7098656436944 564.4559113535528L341.7098656436944 564.4559113535528Q328.6502228054186 564.0468845085061 318.7751461178633 558.8756165389875Q308.90006943030795 553.7335647726866 308.90006943030795 544.6765417752246L308.90006943030795 544.6765417752246Q309.1045828528313 539.8558682443174 312.1430679874637 536.9926803289907Q315.2107693253137 534.1587086168817 319.6224160111742 534.363222039405L319.6224160111742 534.363222039405Q321.2877395945785 543.0112181918203 328.12433114750144 548.2701347709917Q334.96092270042436 553.5290513501632 345.0697290137206 553.6166999598161Q355.17853532701685 553.7335647726866 361.89826206706925 549.0005398514322Q368.6179888071217 544.2675149301779 368.85171843286264 536.4667886710736Q369.056231855386 528.6952786151869 364.11869351160834 524.6926587743731Q359.15193896461307 520.6900389335592 349.9196187478454 517.2425269538801Q340.6580823278601 513.7657987709835 336.97684072244004 512.2757724068848Q333.29559911702006 510.81496224600386 327.9198177249781 507.8641257210243Q322.5732525361538 504.9132891960448 319.6224160111742 501.9916688742828L319.6224160111742 501.9916688742828Q312.6689596453809 494.6291856634428 312.6689596453809 484.7248927726699L312.6689596453809 484.7248927726699ZM484.9569100196815 564.4559113535528L484.9569100196815 564.4559113535528Q471.0792134913123 564.4559113535528 470.02743017547806 549.0881884610851L470.02743017547806 549.0881884610851Q454.65970728301033 564.4559113535528 436.9839043363507 564.4559113535528Q419.3373175929087 564.4559113535528 407.650836305861 551.5131333281474Q395.9643550188133 538.5703553027422 395.3508147512433 512.801664064802Q394.7080582804557 487.0329728268618 408.0598631509077 471.16857447969454Q421.4408842245773 455.2749599293097 445.39817086302503 455.2749599293097L445.39817086302503 455.2749599293097Q458.2533002787775 455.2749599293097 469.8229167529547 460.73838993100446L469.8229167529547 460.73838993100446L469.8229167529547 428.57135018840575L458.86684054634753 427.3150534500481Q453.81243738969937 426.8768104017838 453.81243738969937 418.2580304525861L453.81243738969937 418.2580304525861L484.31415354889384 414.4599240342956L484.31415354889384 552.8862948793756L497.78282323221634 554.5808346659975Q497.3737963871697 564.4559113535528 484.9569100196815 564.4559113535528ZM469.8229167529547 538.8040849284831L469.8229167529547 476.95338271678315Q458.45781370130084 466.6400629809636 442.3596857283926 466.6400629809636Q426.26155775548443 466.6400629809636 418.5776963092506 478.94008453558126Q410.92305106623434 491.240106090199 410.92305106623434 509.7631789301696Q410.92305106623434 528.2862517701401 418.49004769959777 540.1480302764936Q426.05704433296114 552.0390249860646 441.6292806479522 552.0390249860646L441.6292806479522 552.0390249860646Q449.4007907038389 552.0390249860646 455.50697717632136 548.8836750385617Q461.6131636488037 545.7283250910589 469.8229167529547 538.8040849284831L469.8229167529547 538.8040849284831ZM619.5851744464709 561.30056140605L619.5851744464709 561.30056140605L580.4646783380788 561.30056140605L580.4646783380788 559.606021619428Q580.4646783380788 554.5808346659975 583.4155148630583 553.2953217244223L583.4155148630583 553.2953217244223Q584.8763250239393 552.4772680343289 586.9798916556078 552.2435384085879L586.9798916556078 552.2435384085879L596.2414280755931 551.8345115635412L596.2414280755931 497.3462925626814Q596.2414280755931 467.8963597193212 572.8976817047154 467.8963597193212L572.8976817047154 467.8963597193212Q564.2496855523001 467.8963597193212 557.3254453897243 471.25622308934743Q550.371989023931 474.64530266259123 541.54869565221 482.0077858734313L541.54869565221 482.0077858734313L541.54869565221 551.4254847184945L556.4781754964134 552.6817814568523Q557.3254453897243 561.30056140605 550.8102320721953 561.30056140605L550.8102320721953 561.30056140605L511.2514929155388 561.30056140605L511.2514929155388 559.606021619428Q511.2514929155388 552.8862948793756 517.9712196555912 552.2435384085879L517.9712196555912 552.2435384085879L527.0282426530532 551.8345115635412L527.0282426530532 468.9481430351555L516.1013826496636 467.69184629679785Q511.04697949301544 467.2828194517512 511.04697949301544 459.07306634760016L511.04697949301544 459.07306634760016L538.1888322821837 455.479473351833L540.9059391814224 471.4899527150884L541.54869565221 471.4899527150884Q558.5817421280819 455.2749599293097 576.6665719197883 455.2749599293097L576.6665719197883 455.2749599293097Q590.7779980738984 455.2749599293097 600.7699395743242 465.17925282008264Q610.7618810747499 475.05432950763793 610.7618810747499 495.6809689792771L610.7618810747499 495.6809689792771L610.7618810747499 551.4254847184945L625.48684749643 552.6817814568523Q626.3049011865234 561.30056140605 619.5851744464709 561.30056140605Z " fill="#ffffff" transform="matrix(0.4158750836877534,0,0,0.4158750836877534,0,96.44581157455872)"/><path d="M720.1910413249691 469.0941832910413Q720.3500599558054 458.46265197227797 728.8461982319111 452.26092536966604Q737.3650534552792 446.0364818197918 747.4286610924846 446.19550045062795Q757.4695517824277 446.35451908146416 764.0120325939745 449.7166272762868Q770.5545134055211 453.0787354711094 770.395494774685 459.62121628265606L770.395494774685 459.62121628265606Q770.2364761438487 464.0283040515451 767.2832729997479 465.9819615161042Q764.3527868029091 467.9583359279256 760.9225277662997 467.6175817189909L760.9225277662997 467.6175817189909Q761.0815463971358 461.8929110088875 757.4014009406408 458.3036333414418Q753.7212554841458 454.714355673996 746.6790018328281 454.5326200958975Q739.6594651287729 454.3736014650613 734.979773992736 457.7357096598839Q730.3227998039615 461.0751009074442 730.1637811731252 466.3227157250389Q730.0047625422892 471.54761359537133 734.8207553619 474.7507031593577Q739.6594651287729 477.9310757760818 748.4736406665511 481.3613348126913Q757.3105331515916 484.79159384930085 760.5136227155779 486.35906321040056Q763.6939953323019 487.903815624238 767.4650085778462 490.51626455940425L767.4650085778462 490.51626455940425Q774.4845452819015 495.4231251680642 774.2346588620161 505.4185819634828Q774.007489389393 515.3913218116389 765.4886341660249 523.3195364061869Q756.9924958899192 531.2477510007348 742.7489699564478 531.0887323698985L742.7489699564478 531.0887323698985Q732.6172114774554 530.7706951082262 724.9388833027929 526.7497954427963Q717.2378381808683 522.751612724629 717.2378381808683 515.7093590733114L717.2378381808683 515.7093590733114Q717.3968568117043 511.9610627750294 719.7821362742475 509.73480194332257Q722.1446987895282 507.53125805887805 725.5749578261377 507.6902766897142L725.5749578261377 507.6902766897142Q726.892540767352 514.4144930793594 732.2083064267337 518.5035435865761Q737.5240720861153 522.5925940937927 745.3841358388763 522.6607449355797Q753.2214826443749 522.751612724629 758.4690974619696 519.071467268134Q763.6939953323019 515.3913218116389 763.8530139631382 509.3258968926009Q764.0120325939745 503.2831889208252 760.1728685066432 500.170967145888Q756.333704419312 497.0587453709509 749.1324321371583 494.3781455939977Q741.9311598550044 491.6748288697823 739.0688244999528 490.51626455940425Q736.2064891449011 489.3804171962885 732.0492877958975 487.08600552279466Q727.8693694996316 484.79159384930085 725.5749578261377 482.5198991230694L725.5749578261377 482.5198991230694Q720.1910413249691 476.795228412966 720.1910413249691 469.0941832910413L720.1910413249691 469.0941832910413ZM832.8898166933129 456.1682402987842L804.7435190353049 456.1682402987842L804.7435190353049 504.2600176531047Q804.7435190353049 513.4149473998175 806.7880442889133 517.5039979070342Q808.8325695425217 521.5930484142509 814.6481080416743 521.5930484142509Q820.4409295935645 521.5930484142509 824.3709614699449 520.298182420299Q828.3009933463254 518.9805994790847 834.0256640564287 514.4144930793594L834.0256640564287 514.4144930793594Q836.9788672005297 515.2323031808028 836.9788672005297 519.3213536880194Q836.9788672005297 523.4104041952361 829.0279356587196 527.3177191243542Q821.0997210641717 531.2477510007348 813.7394301511815 531.2477510007348L813.7394301511815 531.2477510007348Q802.290088730975 531.2477510007348 797.8830009620858 524.705270189188Q793.4531962459345 518.1627893776414 793.4531962459345 505.73661922515515L793.4531962459345 505.73661922515515L793.4531962459345 456.1682402987842L781.5267989332192 456.1682402987842Q781.0270260934483 448.648930754958 786.274640911043 448.648930754958L786.274640911043 448.648930754958L793.4531962459345 448.648930754958L793.4531962459345 429.18050695115414L804.7435190353049 426.40903938515174L804.7435190353049 448.648930754958L835.3432469976431 448.648930754958Q835.8203028901517 454.05556420338894 832.8898166933129 456.1682402987842L832.8898166933129 456.1682402987842ZM881.0497448894205 454.62348788494677Q869.8502898890993 454.714355673996 863.7848649700611 464.3463413132175Q857.7421569982855 474.00104389970136 857.7421569982855 488.9715121455668Q857.7421569982855 503.94198039143225 863.6258463392251 513.3467965580306Q869.5095356801646 522.751612724629 880.6408398386989 522.6607449355797Q891.7721439972331 522.5925940937927 897.8148519690087 513.2559287689814Q903.8575599407845 503.94198039143225 903.8575599407845 489.130530776403Q903.8575599407845 474.34179810863606 898.0647383888943 464.43720910226676Q892.2491998897417 454.5326200958975 881.0497448894205 454.62348788494677ZM881.958422779913 446.19550045062795L881.958422779913 446.19550045062795Q894.3845929323993 446.19550045062795 904.3573327805555 454.05556420338894L904.3573327805555 454.05556420338894Q909.5822306508878 458.3036333414418 912.7853202148742 466.4817343558751Q915.9656928315985 474.65983537030843 915.9656928315985 486.1091767905151L915.9656928315985 486.1091767905151Q916.3064470405332 506.3954106957623 906.492725823213 518.7307130591992Q896.6790046058932 531.0887323698985 879.9820483680917 531.0887323698985Q863.3078090775525 531.0887323698985 854.6299352233484 520.6162196819714Q845.9747783164064 510.14370699404424 845.7248918965208 490.357245928568Q845.4750054766355 470.5707848630918 855.3795944830047 458.39450113049105Q865.2614665421117 446.19550045062795 881.958422779913 446.19550045062795ZM953.4259388671555 459.4394807045575Q958.3327994758156 454.2145828342251 965.6022225997563 450.2164001160577Q972.8943626709595 446.19550045062795 977.551336859734 446.19550045062795Q982.2083110485084 446.19550045062795 985.1615141926093 448.3990443350725Q988.092000389448 450.62530516677936 988.092000389448 455.35043019734087L988.092000389448 455.35043019734087Q988.092000389448 463.86928542070893 985.3205328234455 466.98150719564603L985.3205328234455 466.98150719564603Q983.185139780788 468.77614602936893 978.6190333810628 468.4353918204342L978.6190333810628 468.4353918204342Q978.6190333810628 456.6680131385551 972.3945898311886 456.6680131385551L972.3945898311886 456.6680131385551Q964.5572430256898 456.6680131385551 953.4259388671555 467.7993172970894L953.4259388671555 467.7993172970894L953.4259388671555 520.956973890906L967.4877292225285 521.9338026231856Q968.1465206931357 528.6353020655686 962.9216228228031 528.6353020655686L962.9216228228031 528.6353020655686L930.2092187650699 528.6353020655686L930.2092187650699 527.3177191243542Q930.2092187650699 523.4104041952361 932.4809134913012 522.4108585156943L932.4809134913012 522.4108585156943Q933.6394778016793 521.7747839923494 935.275098004566 521.5930484142509L935.275098004566 521.5930484142509L942.135616077785 521.2750111525785L942.135616077785 457.32680460916225L933.2987235927446 456.3499758768827Q929.709445925299 456.009221667948 929.709445925299 449.62575948723753L929.709445925299 449.62575948723753L951.7903186642689 446.85429192123513L952.9261660273846 459.4394807045575L953.4259388671555 459.4394807045575ZM1047.6331191639752 448.648930754958L1047.6331191639752 448.648930754958L1069.2369360104367 448.648930754958Q1069.055200432338 449.1487035947289 1069.2369360104367 449.875645907123Q1069.3959546412727 450.62530516677936 1069.1460682213874 451.5112661100096Q1068.8961818015018 452.41994400050226 1068.5781445398295 453.2377541019456L1068.5781445398295 453.2377541019456Q1067.60131580755 455.19141156650466 1062.3537009899553 455.69118440627557L1062.3537009899553 455.69118440627557L1034.3891389100456 524.5462515583519L1034.548157540882 524.5462515583519Q1030.1410697719928 536.3136302402309 1025.6431142140545 544.8324854635989Q1021.1451586561161 553.3286237397048 1018.5327097209499 556.4408455146419L1018.5327097209499 556.4408455146419Q1012.1492475402395 564.459927898239 1005.9248039903653 564.459927898239Q999.7230773877532 564.459927898239 996.7698742436523 561.9156298048597Q993.8166710995513 559.3940486587428 993.8166710995513 555.872921833084Q993.8166710995513 552.3517950074252 995.7021777223235 550.1482511229807Q997.5876843450956 547.9447072385361 999.9502468603764 547.9447072385361Q1002.3355263229193 547.9447072385361 1003.1533364243628 548.2627445002086L1003.1533364243628 548.2627445002086Q1001.6767348523124 554.8052253117552 1006.9016327226448 554.8052253117552L1006.9016327226448 554.8052253117552Q1011.17241880796 554.8052253117552 1016.5563353091286 545.1505227252715Q1021.9629687575593 535.4958201387876 1026.2110378956124 524.705270189188L1026.2110378956124 524.705270189188L997.7467029759318 456.3499758768827L997.5876843450956 456.3499758768827L989.5686019614984 455.35043019734087Q988.9098104908915 448.648930754958 994.1574253084862 448.648930754958L994.1574253084862 448.648930754958L1021.6222145486247 448.648930754958L1021.6222145486247 449.807495065336Q1021.6222145486247 453.7148099944542 1019.3505198223932 454.714355673996L1019.3505198223932 454.714355673996Q1018.032936881179 455.35043019734087 1010.3546087065165 456.009221667948L1010.3546087065165 456.009221667948L1031.6176713440432 510.80249846465136L1052.5399797726352 456.3499758768827L1043.06701276425 455.35043019734087Q1042.4082212936428 448.648930754958 1047.6331191639752 448.648930754958ZM1077.5740556557062 492.6516576020618L1077.5740556557062 482.996955015578L1125.3250788010919 482.996955015578L1125.3250788010919 492.6516576020618L1077.5740556557062 492.6516576020618ZM1209.2414819880828 531.0887323698985L1209.2414819880828 531.0887323698985Q1198.4509320384834 531.0887323698985 1197.6331219370402 519.1396181099209L1197.6331219370402 519.1396181099209Q1185.6840076770625 531.0887323698985 1171.940254583362 531.0887323698985Q1158.1965014896616 531.0887323698985 1149.132439531998 521.025124732693Q1140.045660627072 510.9615170954876 1139.5686047345635 490.92516961012586Q1139.0688318947923 470.8888221247642 1149.4504767936703 458.55351976132727Q1159.8321216925483 446.19550045062795 1178.4827353949088 446.19550045062795L1178.4827353949088 446.19550045062795Q1188.455475243065 446.19550045062795 1197.4513863589416 450.4435695886808L1197.4513863589416 450.4435695886808L1197.4513863589416 425.4322106528722L1188.9552480828359 424.4553819205927Q1185.0252162064553 424.11462771165793 1185.0252162064553 417.4131282692751L1185.0252162064553 417.4131282692751L1208.741709148312 414.45992512517415L1208.741709148312 522.0928212540218L1219.214221836239 523.4104041952361Q1218.8961845745666 531.0887323698985 1209.2414819880828 531.0887323698985ZM1197.4513863589416 511.14325267358606L1197.4513863589416 463.0514753192656Q1188.6372108211633 455.03239293566844 1176.120172879628 455.03239293566844Q1163.6031349380924 455.03239293566844 1157.6285778081037 464.596227733103Q1151.6540206781149 474.1600625305375 1151.6540206781149 488.56260709484513Q1151.6540206781149 502.96515165915275 1157.5604269663168 512.1882322476525Q1163.4441163072563 521.4340297834146 1175.55224919807 521.4340297834146L1175.55224919807 521.4340297834146Q1181.5949571698459 521.4340297834146 1186.3427991476697 518.9805994790847Q1191.0906411254934 516.5271691747547 1197.4513863589416 511.14325267358606L1197.4513863589416 511.14325267358606ZM1292.4990937044668 477.7720571452456L1292.4990937044668 485.6094039507442L1241.1360759443728 485.6094039507442Q1240.9770573135368 487.2450241536309 1240.9770573135368 490.69800013750273L1240.9770573135368 490.69800013750273Q1240.9770573135368 504.60077186203944 1246.8607466544763 513.1877779271945Q1252.7444359954159 521.7747839923494 1265.170606147902 521.7747839923494Q1277.5967763003882 521.7747839923494 1288.8870990897587 512.9378915073089L1288.8870990897587 512.9378915073089Q1290.86347350158 514.5735117101956 1290.86347350158 517.0269420145256L1290.86347350158 517.0269420145256Q1290.86347350158 521.5930484142509 1281.9357132274904 526.3408903920747Q1273.030669900663 531.0887323698985 1261.8993657421288 531.0887323698985L1261.8993657421288 531.0887323698985Q1246.70172802364 531.0887323698985 1237.614949118714 521.1159925217423Q1228.5281702137881 511.14325267358606 1228.5281702137881 490.69800013750273Q1228.5281702137881 470.2527476014194 1239.34143711065 458.2127655523925Q1250.1319870602497 446.19550045062795 1264.8525688862296 446.19550045062795Q1279.5731507122098 446.19550045062795 1286.1156315237563 455.53216577543935Q1292.658112335303 464.84611415298843 1292.4990937044668 477.7720571452456L1292.4990937044668 477.7720571452456ZM1242.1129046766525 478.2491130377542L1280.5499794444893 478.2491130377542Q1280.5499794444893 467.29954445731846 1276.3019103064364 460.847931434821Q1272.0538411683835 454.3736014650613 1263.943890995737 454.3736014650613Q1255.856657770353 454.3736014650613 1250.1319870602497 460.7570636457718Q1244.4073163501462 467.14052582648225 1242.1129046766525 478.2491130377542L1242.1129046766525 478.2491130377542ZM1353.9938699435531 448.648930754958L1353.9938699435531 448.648930754958L1375.0979139502435 448.648930754958Q1375.415951211916 455.19141156650466 1370.1910533415837 455.53216577543935L1370.1910533415837 455.53216577543935L1369.1915076620417 455.69118440627557L1339.7503440100818 528.6353020655686L1332.0720158354195 528.6353020655686L1304.5845096480184 456.3499758768827L1298.2237644145703 455.35043019734087Q1297.7239915747994 448.648930754958 1302.471833552623 448.648930754958L1302.471833552623 448.648930754958L1328.6417567988099 448.648930754958L1328.6417567988099 449.807495065336Q1328.6417567988099 451.102361059288 1328.3918703789243 451.67028474084583Q1328.1419839590387 452.26092536966604 1327.6649280665304 453.2377541019456L1327.6649280665304 453.2377541019456Q1327.0061365959232 455.19141156650466 1323.394141981215 455.53216577543935L1323.394141981215 455.53216577543935L1317.192415378603 456.009221667948L1337.4786492838505 513.0969101381452L1358.741711921377 456.3499758768827L1349.4050465965656 455.35043019734087Q1348.7462551259584 448.648930754958 1353.9938699435531 448.648930754958ZM1383.5940522263493 492.6516576020618L1383.5940522263493 482.996955015578L1431.345075371735 482.996955015578L1431.345075371735 492.6516576020618L1383.5940522263493 492.6516576020618ZM1530.9588891169858 528.6353020655686L1530.9588891169858 528.6353020655686L1500.540896732746 528.6353020655686L1500.540896732746 527.3177191243542Q1500.540896732746 523.4104041952361 1502.8353084062398 522.4108585156943L1502.8353084062398 522.4108585156943Q1503.9711557693556 521.7747839923494 1505.6067759722425 521.5930484142509L1505.6067759722425 521.5930484142509L1512.8080482543962 521.2750111525785L1512.8080482543962 478.9079045083613Q1512.8080482543962 456.009221667948 1494.6572073918067 456.009221667948L1494.6572073918067 456.009221667948Q1487.9557079494236 456.009221667948 1482.5490745009927 458.6216706031142Q1477.1424410525617 461.2568364855427 1470.2819229793429 466.98150719564603L1470.2819229793429 466.98150719564603L1470.2819229793429 520.956973890906L1481.8902830303857 521.9338026231856Q1482.5490745009927 528.6353020655686 1477.4831952614966 528.6353020655686L1477.4831952614966 528.6353020655686L1446.7244486683223 528.6353020655686L1446.7244486683223 527.3177191243542Q1446.7244486683223 522.0928212540218 1451.972063485917 521.5930484142509L1451.972063485917 521.5930484142509L1458.9916001899724 521.2750111525785L1458.9916001899724 456.8270317693913L1450.4954619138666 455.8502030371118Q1446.565430037486 455.53216577543935 1446.565430037486 449.1487035947289L1446.565430037486 449.1487035947289L1467.6694740441765 446.35451908146416L1469.782150139572 458.8034061812127L1470.2819229793429 458.8034061812127Q1483.5259032332722 446.19550045062795 1497.5876935886452 446.19550045062795L1497.5876935886452 446.19550045062795Q1508.5599791163434 446.19550045062795 1516.329175080055 453.8965455725527Q1524.0983710437665 461.5748737472151 1524.0983710437665 477.61303851440937L1524.0983710437665 477.61303851440937L1524.0983710437665 520.956973890906L1535.5477124639735 521.9338026231856Q1536.2065039345805 528.6353020655686 1530.9588891169858 528.6353020655686ZM1581.254210355751 454.62348788494677Q1570.0547553554295 454.714355673996 1564.012047383654 464.3463413132175Q1557.9466224646155 474.00104389970136 1557.9466224646155 488.9715121455668Q1557.9466224646155 503.94198039143225 1563.8303118055553 513.3467965580306Q1569.7367180937572 522.751612724629 1580.8453053050291 522.6607449355797Q1591.9766094635631 522.5925940937927 1598.0193174353392 513.2559287689814Q1604.084742354377 503.94198039143225 1604.084742354377 489.130530776403Q1604.084742354377 474.34179810863606 1598.2692038552243 464.43720910226676Q1592.453665356072 454.5326200958975 1581.254210355751 454.62348788494677ZM1582.1628882462433 446.19550045062795L1582.1628882462433 446.19550045062795Q1594.5890583987295 446.19550045062795 1604.561798246886 454.05556420338894L1604.561798246886 454.05556420338894Q1609.8094130644806 458.3036333414418 1612.9897856812047 466.4817343558751Q1616.1701582979288 474.65983537030843 1616.1701582979288 486.1091767905151L1616.1701582979288 486.1091767905151Q1616.5109125068636 506.3954106957623 1606.6971912895435 518.7307130591992Q1596.8834700722234 531.0887323698985 1580.1865138344222 531.0887323698985Q1563.5122745438828 531.0887323698985 1554.8344006896787 520.6162196819714Q1546.1792437827369 510.14370699404424 1545.9293573628513 490.357245928568Q1545.6794709429657 470.5707848630918 1555.5840599493351 458.39450113049105Q1565.4659320084418 446.19550045062795 1582.1628882462433 446.19550045062795ZM1677.3468972753424 456.1682402987842L1649.2233165645966 456.1682402987842L1649.2233165645966 504.2600176531047Q1649.2233165645966 513.4149473998175 1651.2678418182052 517.5039979070342Q1653.3123670718135 521.5930484142509 1659.1051886237037 521.5930484142509Q1664.9207271228563 521.5930484142509 1668.8507589992369 520.298182420299Q1672.7807908756174 518.9805994790847 1678.5054615857205 514.4144930793594L1678.5054615857205 514.4144930793594Q1681.4359477825592 515.2323031808028 1681.4359477825592 519.3213536880194Q1681.4359477825592 523.4104041952361 1673.5077331880113 527.3177191243542Q1665.5795185934635 531.2477510007348 1658.2192276804735 531.2477510007348L1658.2192276804735 531.2477510007348Q1646.7698862602667 531.2477510007348 1642.3400815441153 524.705270189188Q1637.9329937752264 518.1627893776414 1637.9329937752264 505.73661922515515L1637.9329937752264 505.73661922515515L1637.9329937752264 456.1682402987842L1625.9838795152486 456.1682402987842Q1625.50682362274 448.648930754958 1630.7317214930724 448.648930754958L1630.7317214930724 448.648930754958L1637.9329937752264 448.648930754958L1637.9329937752264 429.18050695115414L1649.2233165645966 426.40903938515174L1649.2233165645966 448.648930754958L1679.8003275796725 448.648930754958Q1680.3001004194437 454.05556420338894 1677.3468972753424 456.1682402987842L1677.3468972753424 456.1682402987842ZM1754.0620281801796 477.7720571452456L1754.0620281801796 485.6094039507442L1702.6990104200859 485.6094039507442Q1702.5399917892498 487.2450241536309 1702.5399917892498 490.69800013750273L1702.5399917892498 490.69800013750273Q1702.5399917892498 504.60077186203944 1708.4236811301892 513.1877779271945Q1714.307370471129 521.7747839923494 1726.7562575708773 521.7747839923494Q1739.1824277233634 521.7747839923494 1750.4727505127341 512.9378915073089L1750.4727505127341 512.9378915073089Q1752.4264079772931 514.5735117101956 1752.4264079772931 517.0269420145256L1752.4264079772931 517.0269420145256Q1752.4264079772931 521.5930484142509 1743.5213646504656 526.3408903920747Q1734.593604376376 531.0887323698985 1723.485017165104 531.0887323698985L1723.485017165104 531.0887323698985Q1708.2646624993529 531.0887323698985 1699.1778835944272 521.1159925217423Q1690.1138216367635 511.14325267358606 1690.1138216367635 490.69800013750273Q1690.1138216367635 470.2527476014194 1700.904371586363 458.2127655523925Q1711.6949215359625 446.19550045062795 1726.4155033619425 446.19550045062795Q1741.1360851879228 446.19550045062795 1747.6785659994696 455.53216577543935Q1754.2210468110159 464.84611415298843 1754.0620281801796 477.7720571452456L1754.0620281801796 477.7720571452456ZM1703.6758391523654 478.2491130377542L1742.1129139202023 478.2491130377542Q1742.1129139202023 467.29954445731846 1737.8648447821495 460.847931434821Q1733.6167756440962 454.3736014650613 1725.5295424187123 454.3736014650613Q1717.4195922460658 454.3736014650613 1711.6949215359625 460.7570636457718Q1705.9702508258592 467.14052582648225 1703.6758391523654 478.2491130377542L1703.6758391523654 478.2491130377542ZM1785.2978306658626 414.45992512517415L1785.2978306658626 457.80386050167084Q1797.2469449258404 446.19550045062795 1810.8998302304915 446.19550045062795Q1824.5527155351426 446.19550045062795 1833.6394944400683 456.1682402987842Q1842.7035563977322 466.1636970942027 1843.1124614484536 486.2681954213513Q1843.5213664991754 506.3954106957623 1833.230589389347 518.7307130591992Q1822.9170953322562 531.0887323698985 1804.2664816298955 531.0887323698985L1804.2664816298955 531.0887323698985Q1794.9525332523465 531.0887323698985 1785.2978306658626 526.8406632318456L1785.2978306658626 526.8406632318456L1774.007507876492 522.5925940937927L1774.007507876492 425.4322106528722L1765.5113696003862 424.4553819205927Q1761.5813377240058 424.11462771165793 1761.5813377240058 417.4131282692751L1761.5813377240058 417.4131282692751L1785.2978306658626 414.45992512517415ZM1785.2978306658626 465.9819615161042L1785.2978306658626 514.232757501261Q1794.1347231509033 522.2518398848581 1806.6517610924386 522.2518398848581Q1819.168799033974 522.2518398848581 1825.0524883749138 512.5971372983743Q1830.936177715853 502.96515165915275 1830.936177715853 488.56260709484513Q1830.936177715853 474.1600625305375 1825.1206392167007 465.00513278382465Q1819.3278176648103 455.8502030371118 1807.2196847739963 455.8502030371118L1807.2196847739963 455.8502030371118Q1801.1769768022207 455.8502030371118 1796.4291348243967 458.3036333414418Q1791.6812928465731 460.7570636457718 1785.2978306658626 465.9819615161042L1785.2978306658626 465.9819615161042ZM1891.2042388027746 454.62348788494677Q1880.0047838024532 454.714355673996 1873.9620758306776 464.3463413132175Q1867.8966509116392 474.00104389970136 1867.8966509116392 488.9715121455668Q1867.8966509116392 503.94198039143225 1873.7803402525785 513.3467965580306Q1879.6867465407806 522.751612724629 1890.7953337520528 522.6607449355797Q1901.9266379105873 522.5925940937927 1907.9693458823629 513.2559287689814Q1914.0347708014008 503.94198039143225 1914.0347708014008 489.130530776403Q1914.0347708014008 474.34179810863606 1908.2192323022484 464.43720910226676Q1902.4036938030956 454.5326200958975 1891.2042388027746 454.62348788494677ZM1892.1129166932672 446.19550045062795L1892.1129166932672 446.19550045062795Q1904.5390868457532 446.19550045062795 1914.5118266939096 454.05556420338894L1914.5118266939096 454.05556420338894Q1919.7594415115038 458.3036333414418 1922.9398141282284 466.4817343558751Q1926.1201867449524 474.65983537030843 1926.1201867449524 486.1091767905151L1926.1201867449524 486.1091767905151Q1926.4609409538868 506.3954106957623 1916.6472197365667 518.7307130591992Q1906.833498519247 531.0887323698985 1890.1365422814454 531.0887323698985Q1873.4623029909064 531.0887323698985 1864.784429136702 520.6162196819714Q1856.12927222976 510.14370699404424 1855.8793858098745 490.357245928568Q1855.6294993899894 470.5707848630918 1865.5340883963584 458.39450113049105Q1875.4159604554654 446.19550045062795 1892.1129166932672 446.19550045062795ZM1974.3028318883219 454.62348788494677Q1963.1033768880009 454.714355673996 1957.037951968963 464.3463413132175Q1950.995243997187 474.00104389970136 1950.995243997187 488.9715121455668Q1950.995243997187 503.94198039143225 1956.8789333381267 513.3467965580306Q1962.7626226790665 522.751612724629 1973.8939268376005 522.6607449355797Q1985.0025140488722 522.5925940937927 1991.0679389679105 513.2559287689814Q1997.1106469396861 503.94198039143225 1997.1106469396861 489.130530776403Q1997.1106469396861 474.34179810863606 1991.3178253877957 464.43720910226676Q1985.5022868886433 454.5326200958975 1974.3028318883219 454.62348788494677ZM1975.1887928315525 446.19550045062795L1975.1887928315525 446.19550045062795Q1987.637679931301 446.19550045062795 1997.6104197794573 454.05556420338894L1997.6104197794573 454.05556420338894Q2002.8353176497897 458.3036333414418 2006.038407213776 466.4817343558751Q2009.2187798304997 474.65983537030843 2009.2187798304997 486.1091767905151L2009.2187798304997 486.1091767905151Q2009.5368170921727 506.3954106957623 1999.7230958748526 518.7307130591992Q1989.9093746575325 531.0887323698985 1973.2351353669935 531.0887323698985Q1956.5608960764541 531.0887323698985 1947.8830222222498 520.6162196819714Q1939.205148368046 510.14370699404424 1938.9779788954227 490.357245928568Q1938.728092475537 470.5707848630918 1948.6099645346437 458.39450113049105Q1958.5145535410131 446.19550045062795 1975.1887928315525 446.19550045062795ZM2071.872120379964 448.648930754958L2071.872120379964 448.648930754958L2097.54227078638 448.648930754958L2097.54227078638 449.807495065336Q2097.54227078638 453.7148099944542 2095.2478591128856 454.714355673996L2095.2478591128856 454.714355673996Q2094.1120117497703 455.35043019734087 2087.7285495690603 456.009221667948L2087.7285495690603 456.009221667948L2064.330093888876 481.7020890216261L2092.953447439392 520.956973890906L2103.925732967091 521.9338026231856Q2104.584524437698 528.6353020655686 2099.1778909892664 528.6353020655686L2099.1778909892664 528.6353020655686L2085.7748921045013 528.6353020655686L2057.151538553984 489.5394358271247L2046.679025866057 500.98877724733137L2046.679025866057 520.956973890906L2059.105196018543 521.9338026231856Q2059.76398748915 528.6353020655686 2054.698108249654 528.6353020655686L2054.698108249654 528.6353020655686L2023.439588816709 528.6353020655686L2023.439588816709 527.3177191243542Q2023.439588816709 523.4104041952361 2025.7340004902028 522.4108585156943L2025.7340004902028 522.4108585156943Q2026.8925648005809 521.7747839923494 2028.5281850034673 521.5930484142509L2028.5281850034673 521.5930484142509L2035.3887030766866 521.2750111525785L2035.3887030766866 425.4322106528722L2026.8925648005809 424.4553819205927Q2022.9625329242006 424.11462771165793 2022.9625329242006 417.4131282692751L2022.9625329242006 417.4131282692751L2046.679025866057 414.45992512517415L2046.679025866057 490.357245928568L2077.097018250297 456.3499758768827L2067.2832970329764 455.35043019734087Q2066.6245055623694 448.648930754958 2071.872120379964 448.648930754958Z " fill="#616161" transform="matrix(0.4158750836877534,0,0,0.4158750836877534,0,96.44581157455872)"/></g></svg>